# xmcd
#
# Track frame offsets:
# 182
# 10937
# 22795
# 32515
# 44750
# 56495
# 68650
# 81357
# 92012
# 102825
# 114042
# 125902
#
# Disc length: 1810 seconds
#
#
# Revision: 3
# Processed by: cddbd v1.5.2PL0 Copyright (c) Steve Scherf et al.
# Submitted via: FreeRIP 2.40 
#
DISCID=9007100c
DTITLE=Etta James - Tell Mama
DYEAR=1987
DGENRE=blues
TTITLE0=Tell Mama
TTITLE1=I'd Rather Go Blind
TTITLE2=Watch Dog
TTITLE3=The Love Of My Man
TTITLE4=I'm Gonna Take What He's Got
TTITLE5=The Same Rope
TTITLE6=Security
TTITLE7=Steal Away
TTITLE8=My Mother-In-Law
TTITLE9=Don't Lose Your Good Thing
TTITLE10=It Hurts Me So Much
TTITLE11=Just A Little Bit
EXTD=
EXTT0=
EXTT1=
EXTT2=
EXTT3=
EXTT4=
EXTT5=
EXTT6=
EXTT7=
EXTT8=
EXTT9=
EXTT10=
EXTT11=
PLAYORDER=
